<svg width="214" height="378" viewBox="0 0 214 378" fill="none" xmlns="http://www.w3.org/2000/svg">
<path d="M0 191.5V378H17.0355H34.0711V273.548C34.0711 216.024 35.2068 169.096 36.3425 169.096C37.8568 169.096 62.8422 179.39 91.9919 192.106C148.398 216.629 145.37 216.326 157.106 198.766L162.784 190.592L125.684 174.848C105.62 166.371 76.4706 153.958 61.7065 147.297L34.0711 135.489V94.3141V53.4416L65.4922 67.0658C82.5277 74.6347 116.599 89.47 141.206 100.369L185.498 120.049L193.448 107.938C197.612 101.278 200.641 95.5252 199.884 94.9196C198.748 94.0114 86.692 44.056 47.3209 26.7987C34.8282 21.349 18.9284 14.3856 12.4927 11.0552L0 5V191.5Z" fill="black"/>
<path d="M14 186.5V373H31.0355H48.0711V268.548C48.0711 211.024 49.2068 164.096 50.3425 164.096C51.8567 164.096 76.8422 174.39 105.992 187.106C162.398 211.629 159.37 211.326 171.106 193.766L176.784 185.592L139.684 169.848C119.62 161.371 90.4706 148.958 75.7065 142.297L48.0711 130.489V89.3141V48.4416L79.4922 62.0658C96.5277 69.6347 130.599 84.47 155.206 95.3693L199.498 115.049L207.448 102.938C211.612 96.2776 214.641 90.5252 213.884 89.9196C212.748 89.0114 100.692 39.056 61.3209 21.7987C48.8282 16.349 32.9284 9.38556 26.4927 6.0552L14 4.29153e-06V186.5Z" fill="#CEB84C"/>
</svg>
