<svg width="160" height="373" viewBox="0 0 160 373" fill="none" xmlns="http://www.w3.org/2000/svg">
<path d="M58.92 55.95C58.92 86.8073 58.1113 111.9 56.8984 111.9C55.6854 111.9 45.5774 107.831 34.2564 103.084C22.9355 98.3364 13.2318 94.9455 12.4232 95.6236C7.167 100.71 -1.72804 119.699 0.293557 122.073C1.50652 123.768 15.2534 130.889 30.6176 137.671L58.92 149.878V261.439V373H77.1144H95.3088V271.273C95.3088 192.265 96.5217 169.545 100.565 169.545C102.991 169.545 112.695 173.615 121.59 178.023C130.485 182.77 138.975 186.5 140.593 186.5C142.21 186.5 147.466 180.396 151.914 173.275L160 159.712L127.654 145.47L95.3088 130.889V65.4445V0H77.1144H58.92V55.95Z" fill="black"/>
</svg>
