<svg width="216" height="376" viewBox="0 0 216 376" fill="none" xmlns="http://www.w3.org/2000/svg">
<path d="M80.792 25.5681C71.8519 38.1059 49.9983 68.5101 32.4493 92.6454L0 137.155L42.3827 188.873C65.5607 217.397 87.4143 244.666 91.3877 249.368L98.3411 258.458L110.261 250.622C116.884 246.234 122.512 242.159 122.512 241.219C122.512 240.278 103.639 216.77 80.792 188.56C57.9451 160.35 39.7338 135.901 40.7271 133.707C41.7205 131.513 54.6339 113.019 69.8652 92.332C107.612 40.9269 122.512 19.6126 122.512 17.732C122.512 16.1647 101.652 3.00005 98.6722 3.00005C98.01 3.00005 89.7321 13.3437 80.792 25.5681Z" fill="black"/>
<path d="M85.4276 129.945C80.1297 134.02 76.1564 138.408 76.1564 139.662C76.1564 140.916 93.0432 161.917 113.903 186.366C134.764 210.814 153.306 233.696 155.624 236.83C159.266 242.472 155.293 249.682 119.532 300.46C97.6788 331.804 79.4675 358.761 79.4675 360.328C79.4675 363.462 97.3477 376 101.652 376C102.977 376 125.492 345.596 151.651 308.296L199 240.905L148.671 181.664C121.188 148.752 97.6788 122.109 96.6855 122.109C95.361 122.109 90.3943 125.871 85.4276 129.945Z" fill="black"/>
<path d="M97.792 22.5681C88.8519 35.1059 66.9983 65.5101 49.4493 89.6454L17 134.155L59.3827 185.873C82.5607 214.397 104.414 241.666 108.388 246.368L115.341 255.458L127.261 247.622C133.884 243.234 139.512 239.159 139.512 238.219C139.512 237.278 120.639 213.77 97.792 185.56C74.9451 157.35 56.7338 132.901 57.7271 130.707C58.7205 128.513 71.6339 110.019 86.8652 89.332C124.612 37.9269 139.512 16.6126 139.512 14.732C139.512 13.1647 118.652 3.98457e-05 115.672 3.98457e-05C115.01 3.98457e-05 106.732 10.3437 97.792 22.5681Z" fill="#CEB84C"/>
<path d="M102.428 126.945C97.1297 131.02 93.1564 135.408 93.1564 136.662C93.1564 137.916 110.043 158.917 130.903 183.366C151.764 207.814 170.306 230.696 172.624 233.83C176.266 239.472 172.293 246.682 136.532 297.46C114.679 328.804 96.4675 355.761 96.4675 357.328C96.4675 360.462 114.348 373 118.652 373C119.977 373 142.492 342.596 168.651 305.296L216 237.905L165.671 178.664C138.188 145.752 114.679 119.109 113.685 119.109C112.361 119.109 107.394 122.871 102.428 126.945Z" fill="#CEB84C"/>
</svg>
