<svg width="260" height="373" viewBox="0 0 260 373" fill="none" xmlns="http://www.w3.org/2000/svg">
<path d="M116.402 50.6356C119.297 139.837 121.903 320.889 119.876 320.889C119.008 320.889 94.9744 305.58 66.8874 287.033C39.0901 268.487 15.0569 253.178 14.1882 253.178C13.3196 253.178 9.55535 258.183 6.08068 264.365L0 275.552L17.6629 287.033C27.5078 293.51 61.0963 315.589 92.0788 336.197C123.061 356.804 148.542 373.291 149.121 372.996C149.411 372.407 148.542 307.935 146.805 229.627C145.068 151.024 144.199 79.7805 144.778 71.2431L145.647 55.9347L170.259 75.659C183.868 86.846 206.453 104.804 220.642 115.991L246.123 136.304L253.072 127.767C259.732 119.229 262.048 111.869 257.994 111.869C256.547 111.869 250.176 106.865 243.806 100.682C237.146 94.7946 218.325 79.1917 202.11 66.2385C185.605 53.2852 160.414 32.972 146.226 21.1963C131.748 9.71497 118.718 0 117.27 0C115.533 0 115.243 20.6075 116.402 50.6356Z" fill="black"/>
</svg>
