<svg width="273" height="379" viewBox="0 0 273 379" fill="none" xmlns="http://www.w3.org/2000/svg">
<path d="M116.402 56.6356C119.297 145.837 121.903 326.889 119.876 326.889C119.008 326.889 94.9744 311.58 66.8874 293.033C39.0901 274.487 15.0569 259.178 14.1882 259.178C13.3196 259.178 9.55535 264.183 6.08068 270.365L0 281.552L17.6629 293.033C27.5078 299.51 61.0963 321.589 92.0788 342.197C123.061 362.804 148.542 379.291 149.121 378.996C149.411 378.407 148.542 313.935 146.805 235.627C145.068 157.024 144.199 85.7805 144.778 77.2431L145.647 61.9347L170.259 81.659C183.868 92.846 206.453 110.804 220.642 121.991L246.123 142.304L253.072 133.767C259.732 125.229 262.048 117.869 257.994 117.869C256.547 117.869 250.176 112.865 243.806 106.682C237.146 100.795 218.325 85.1917 202.11 72.2385C185.605 59.2852 160.414 38.972 146.226 27.1963C131.748 15.715 118.718 6 117.27 6C115.533 6 115.243 26.6075 116.402 56.6356Z" fill="black"/>
<path d="M129.402 50.6356C132.297 139.837 134.903 320.889 132.876 320.889C132.008 320.889 107.974 305.58 79.8874 287.033C52.0901 268.487 28.0569 253.178 27.1882 253.178C26.3196 253.178 22.5553 258.183 19.0807 264.365L13 275.552L30.6629 287.033C40.5078 293.51 74.0963 315.589 105.079 336.197C136.061 356.804 161.542 373.291 162.121 372.996C162.411 372.407 161.542 307.935 159.805 229.627C158.068 151.024 157.199 79.7805 157.778 71.2431L158.647 55.9347L183.259 75.659C196.868 86.846 219.453 104.804 233.642 115.991L259.123 136.304L266.072 127.767C272.732 119.229 275.048 111.869 270.994 111.869C269.547 111.869 263.176 106.865 256.806 100.682C250.146 94.7946 231.325 79.1918 215.11 66.2385C198.605 53.2852 173.414 32.972 159.226 21.1963C144.748 9.71497 131.718 -4.74184e-06 130.27 -4.74184e-06C128.533 -4.74184e-06 128.243 20.6075 129.402 50.6356Z" fill="#CEB84C"/>
</svg>
