<svg width="40" height="40" viewBox="0 0 40 40" fill="none" xmlns="http://www.w3.org/2000/svg">
<path d="M27.5 35.625H12.5C10.3451 35.625 8.27849 34.769 6.75476 33.2452C5.23102 31.7215 4.375 29.6549 4.375 27.5V12.5C4.375 10.3451 5.23102 8.27849 6.75476 6.75476C8.27849 5.23102 10.3451 4.375 12.5 4.375H27.5C29.6549 4.375 31.7215 5.23102 33.2452 6.75476C34.769 8.27849 35.625 10.3451 35.625 12.5V27.5C35.625 29.6549 34.769 31.7215 33.2452 33.2452C31.7215 34.769 29.6549 35.625 27.5 35.625ZM12.5 5.625C10.6766 5.625 8.92795 6.34933 7.63864 7.63864C6.34933 8.92795 5.625 10.6766 5.625 12.5V27.5C5.625 29.3234 6.34933 31.072 7.63864 32.3614C8.92795 33.6507 10.6766 34.375 12.5 34.375H27.5C29.3234 34.375 31.072 33.6507 32.3614 32.3614C33.6507 31.072 34.375 29.3234 34.375 27.5V12.5C34.375 10.6766 33.6507 8.92795 32.3614 7.63864C31.072 6.34933 29.3234 5.625 27.5 5.625H12.5Z" fill="#CEB84C"/>
<path d="M20 27.2938C18.5574 27.2938 17.1473 26.866 15.9478 26.0646C14.7483 25.2631 13.8135 24.124 13.2614 22.7913C12.7094 21.4585 12.565 19.992 12.8464 18.5771C13.1278 17.1623 13.8225 15.8626 14.8425 14.8426C15.8626 13.8225 17.1622 13.1279 18.5771 12.8464C19.9919 12.565 21.4584 12.7095 22.7912 13.2615C24.1239 13.8136 25.2631 14.7484 26.0645 15.9479C26.866 17.1473 27.2937 18.5575 27.2937 20.0001C27.2921 21.934 26.5231 23.7882 25.1556 25.1557C23.7881 26.5232 21.9339 27.2921 20 27.2938ZM20 13.9626C18.8044 13.9626 17.6356 14.3172 16.6416 14.9815C15.6476 15.6459 14.873 16.5902 14.4157 17.6949C13.9584 18.7996 13.8391 20.0151 14.0728 21.1877C14.3065 22.3602 14.8828 23.4371 15.7286 24.2821C16.5745 25.1271 17.652 25.7022 18.8247 25.9347C19.9975 26.1672 21.2129 26.0466 22.3172 25.5882C23.4214 25.1298 24.3649 24.3542 25.0282 23.3595C25.6916 22.3648 26.045 21.1957 26.0437 20.0001C26.0421 18.3977 25.4048 16.8614 24.2717 15.7283C23.1387 14.5952 21.6024 13.958 20 13.9563V13.9626Z" fill="#CEB84C"/>
<path d="M27.8125 13.125C27.3799 13.125 26.9569 12.9967 26.5972 12.7563C26.2375 12.516 25.9571 12.1743 25.7915 11.7746C25.6259 11.3749 25.5826 10.9351 25.667 10.5107C25.7514 10.0864 25.9598 9.69663 26.2657 9.39071C26.5716 9.08478 26.9614 8.87644 27.3857 8.79203C27.8101 8.70763 28.2499 8.75095 28.6496 8.91651C29.0493 9.08208 29.391 9.36246 29.6313 9.72219C29.8717 10.0819 30 10.5049 30 10.9375C30 11.5177 29.7695 12.0741 29.3593 12.4843C28.9491 12.8945 28.3927 13.125 27.8125 13.125ZM27.8125 10C27.6271 10 27.4458 10.055 27.2917 10.158C27.1375 10.261 27.0173 10.4074 26.9464 10.5787C26.8754 10.75 26.8568 10.9385 26.893 11.1204C26.9292 11.3023 27.0185 11.4693 27.1496 11.6004C27.2807 11.7315 27.4477 11.8208 27.6296 11.857C27.8115 11.8932 28 11.8746 28.1713 11.8036C28.3426 11.7327 28.489 11.6125 28.592 11.4583C28.695 11.3042 28.75 11.1229 28.75 10.9375C28.75 10.6889 28.6512 10.4504 28.4754 10.2746C28.2996 10.0988 28.0611 10 27.8125 10Z" fill="#CEB84C"/>
</svg>
