<svg width="40" height="40" viewBox="0 0 40 40" fill="none" xmlns="http://www.w3.org/2000/svg">
<path d="M27.5 4.375H12.5C10.3451 4.375 8.27849 5.23102 6.75476 6.75476C5.23102 8.27849 4.375 10.3451 4.375 12.5V27.5C4.375 29.6549 5.23102 31.7215 6.75476 33.2452C8.27849 34.769 10.3451 35.625 12.5 35.625H27.5C29.6549 35.625 31.7215 34.769 33.2452 33.2452C34.769 31.7215 35.625 29.6549 35.625 27.5V12.5C35.625 10.3451 34.769 8.27849 33.2452 6.75476C31.7215 5.23102 29.6549 4.375 27.5 4.375ZM34.375 27.5C34.375 29.3234 33.6507 31.072 32.3614 32.3614C31.072 33.6507 29.3234 34.375 27.5 34.375H12.5C10.6766 34.375 8.92795 33.6507 7.63864 32.3614C6.34933 31.072 5.625 29.3234 5.625 27.5V12.5C5.625 10.6766 6.34933 8.92795 7.63864 7.63864C8.92795 6.34933 10.6766 5.625 12.5 5.625H27.5C29.3234 5.625 31.072 6.34933 32.3614 7.63864C33.6507 8.92795 34.375 10.6766 34.375 12.5V27.5Z" fill="#CEB84C"/>
<path d="M13.75 15.625H9.375C9.20924 15.625 9.05027 15.6908 8.93306 15.8081C8.81585 15.9253 8.75 16.0842 8.75 16.25V30.625C8.75 30.7908 8.81585 30.9497 8.93306 31.0669C9.05027 31.1842 9.20924 31.25 9.375 31.25H13.75C13.9158 31.25 14.0747 31.1842 14.1919 31.0669C14.3092 30.9497 14.375 30.7908 14.375 30.625V16.25C14.375 16.0842 14.3092 15.9253 14.1919 15.8081C14.0747 15.6908 13.9158 15.625 13.75 15.625ZM13.125 30H10V16.875H13.125V30Z" fill="#CEB84C"/>
<path d="M26.25 15.625C24.7015 15.6746 23.193 16.1293 21.875 16.9438V16.25C21.875 16.0843 21.8092 15.9253 21.6919 15.8081C21.5747 15.6909 21.4158 15.625 21.25 15.625H16.875C16.7092 15.625 16.5503 15.6909 16.4331 15.8081C16.3158 15.9253 16.25 16.0843 16.25 16.25V30.625C16.25 30.7908 16.3158 30.9497 16.4331 31.067C16.5503 31.1842 16.7092 31.25 16.875 31.25H21.25C21.4158 31.25 21.5747 31.1842 21.6919 31.067C21.8092 30.9497 21.875 30.7908 21.875 30.625V21.1313C22.4588 20.8362 23.097 20.6639 23.75 20.625C25.5063 20.625 25.625 21.875 25.625 22.15V30.625C25.625 30.7908 25.6908 30.9497 25.8081 31.067C25.9253 31.1842 26.0842 31.25 26.25 31.25H30.625C30.7908 31.25 30.9497 31.1842 31.0669 31.067C31.1842 30.9497 31.25 30.7908 31.25 30.625V20.7313C31.2943 20.0376 31.1987 19.3421 30.9689 18.6861C30.7392 18.0301 30.3799 17.427 29.9125 16.9125C29.4201 16.4625 28.8419 16.1165 28.2126 15.8952C27.5832 15.674 26.9157 15.5821 26.25 15.625ZM30 30H26.875V22.15C26.875 21.1875 26.25 19.375 23.75 19.375C22.7735 19.4277 21.8221 19.7036 20.9687 20.1813C20.8657 20.2332 20.779 20.3127 20.7183 20.4108C20.6577 20.509 20.6253 20.6221 20.625 20.7375V30H17.5V16.875H20.625V18.1625C20.6252 18.2826 20.6599 18.4001 20.7251 18.501C20.7903 18.6019 20.8832 18.6818 20.9927 18.7313C21.1021 18.7807 21.2235 18.7976 21.3423 18.7799C21.4611 18.7621 21.5723 18.7105 21.6625 18.6313C22.9587 17.5603 24.57 16.9434 26.25 16.875C26.7485 16.8363 27.2496 16.8976 27.724 17.0554C28.1985 17.2132 28.6365 17.4642 29.0125 17.7938C29.3639 18.1933 29.6322 18.6588 29.8018 19.1632C29.9713 19.6675 30.0387 20.2006 30 20.7313V30Z" fill="#CEB84C"/>
<path d="M11.5625 8.75C11.0062 8.75 10.4625 8.91495 9.99996 9.22399C9.53745 9.53303 9.17696 9.97229 8.96409 10.4862C8.75122 11.0001 8.69552 11.5656 8.80404 12.1112C8.91256 12.6568 9.18043 13.1579 9.57376 13.5512C9.9671 13.9446 10.4682 14.2124 11.0138 14.321C11.5594 14.4295 12.1249 14.3738 12.6388 14.1609C13.1527 13.948 13.592 13.5876 13.901 13.125C14.2101 12.6625 14.375 12.1188 14.375 11.5625C14.375 10.8166 14.0787 10.1012 13.5512 9.57376C13.0238 9.04632 12.3084 8.75 11.5625 8.75ZM11.5625 13.125C11.2535 13.125 10.9514 13.0334 10.6944 12.8617C10.4375 12.69 10.2372 12.446 10.1189 12.1604C10.0007 11.8749 9.96973 11.5608 10.03 11.2577C10.0903 10.9546 10.2391 10.6762 10.4576 10.4576C10.6762 10.2391 10.9546 10.0903 11.2577 10.03C11.5608 9.96973 11.8749 10.0007 12.1604 10.1189C12.446 10.2372 12.69 10.4375 12.8617 10.6944C13.0334 10.9514 13.125 11.2535 13.125 11.5625C13.125 11.9769 12.9604 12.3743 12.6674 12.6674C12.3743 12.9604 11.9769 13.125 11.5625 13.125Z" fill="#CEB84C"/>
</svg>
