<svg width="212" height="377" viewBox="0 0 212 377" fill="none" xmlns="http://www.w3.org/2000/svg">
<path d="M5.03049 0.869415C1.25762 1.87338 0 46.0471 0 187.604V373H18.8643H37.7287L38.5671 288.668L39.8247 204.671L117.378 166.856C160.137 145.773 197.027 128.371 199.123 127.702C204.154 126.028 186.128 99.9258 180.678 100.93C178.582 101.599 147.142 115.989 111.09 133.725C75.0381 151.127 44.0168 165.517 41.5015 165.517C38.9863 165.517 37.7287 150.123 38.5671 126.028L39.8247 86.8744L96.4177 64.4529C127.439 52.4055 154.688 41.6967 156.364 41.0274C158.88 40.0234 149.238 16.2633 144.627 12.2475C143.788 11.5782 120.732 20.2791 92.6448 31.3225C64.9771 42.7007 41.0823 51.7362 39.8247 51.7362C38.5671 51.7362 37.7287 40.3581 37.7287 26.6375C37.7287 8.901 36.0518 1.53873 32.6982 1.20407C29.7637 1.20407 23.4756 0.53476 18.8643 0.200134C13.8338 -0.134521 7.96494 -0.134521 5.03049 0.869415Z" fill="black"/>
<path d="M17.0305 4.86942C13.2576 5.87337 12 50.0471 12 191.604V377H30.8643H49.7287L50.5671 292.668L51.8247 208.671L129.378 170.856C172.137 149.773 209.027 132.371 211.123 131.702C216.154 130.028 198.128 103.926 192.678 104.93C190.582 105.599 159.142 119.989 123.09 137.725C87.0381 155.127 56.0168 169.517 53.5015 169.517C50.9863 169.517 49.7287 154.123 50.5671 130.028L51.8247 90.8744L108.418 68.4529C139.439 56.4055 166.688 45.6967 168.364 45.0274C170.88 44.0234 161.238 20.2633 156.627 16.2475C155.788 15.5782 132.732 24.2791 104.645 35.3226C76.9771 46.7006 53.0823 55.7362 51.8247 55.7362C50.5671 55.7362 49.7287 44.3581 49.7287 30.6375C49.7287 12.901 48.0518 5.53872 44.6982 5.20407C41.7637 5.20407 35.4756 4.53477 30.8643 4.20012C25.8338 3.86547 19.9649 3.86547 17.0305 4.86942Z" fill="#CEB84C"/>
</svg>
