<svg width="380" height="378" viewBox="0 0 380 378" fill="none" xmlns="http://www.w3.org/2000/svg">
<path d="M0.120543 190.605L1.53962 376.508H22.8257H44.1118L46.477 342.192L48.8421 307.876L114.592 254.164C150.542 224.622 180.816 200.75 182.235 201.049C183.181 201.347 213.928 226.413 250.351 256.551L316.101 311.755V344.878V378H337.387H358.673L359.619 191.5C360.565 88.8504 359.619 5.29837 358.2 5.59677C356.308 6.19357 331.238 26.4848 302.383 51.252C197.372 140.474 183.181 151.813 177.505 148.53C174.194 147.038 134.46 113.916 89.0492 75.4224C43.6388 36.9288 4.85079 5.29837 2.48567 4.99997C0.593567 4.99997 -0.352482 88.552 0.120543 190.605ZM104.659 134.804L153.854 176.282L132.094 194.782C120.269 204.928 96.1445 224.921 78.6426 239.244L46.95 265.205L45.5309 203.138C43.6388 124.36 45.5309 86.7616 51.2072 90.3424C53.5723 91.8344 77.6966 111.827 104.659 134.804ZM315.155 219.251L313.736 263.713L262.176 220.743C213.928 180.459 210.616 177.177 216.766 171.209C220.077 167.628 243.255 147.337 268.325 125.852L313.736 87.3584L315.155 130.925C315.628 155.095 315.628 194.782 315.155 219.251Z" fill="black"/>
<path d="M20.1205 185.605L21.5396 371.508H42.8257H64.1118L66.4769 337.192L68.8421 302.876L134.592 249.164C170.542 219.622 200.816 195.75 202.235 196.049C203.181 196.347 233.928 221.413 270.351 251.551L336.101 306.755V339.878V373H357.387H378.673L379.619 186.5C380.565 83.8504 379.619 0.298382 378.2 0.596782C376.308 1.19358 351.238 21.4848 322.383 46.252C217.372 135.474 203.181 146.813 197.505 143.53C194.194 142.038 154.46 108.916 109.049 70.4224C63.6388 31.9288 24.8508 0.298382 22.4857 -1.82986e-05C20.5936 -1.82986e-05 19.6475 83.552 20.1205 185.605ZM124.659 129.804L173.854 171.282L152.094 189.782C140.269 199.928 116.145 219.921 98.6426 234.244L66.95 260.205L65.5309 198.138C63.6388 119.36 65.5309 81.7616 71.2072 85.3424C73.5723 86.8344 97.6966 106.827 124.659 129.804ZM335.155 214.251L333.736 258.713L282.176 215.743C233.928 175.459 230.616 172.177 236.766 166.209C240.077 162.628 263.255 142.337 288.325 120.852L333.736 82.3584L335.155 125.925C335.628 150.095 335.628 189.782 335.155 214.251Z" fill="#CEB84C"/>
</svg>
