<svg width="360" height="373" viewBox="0 0 360 373" fill="none" xmlns="http://www.w3.org/2000/svg">
<path d="M0.120543 185.605L1.53962 371.508H22.8257H44.1118L46.477 337.192L48.8421 302.876L114.592 249.164C150.542 219.622 180.816 195.75 182.235 196.049C183.181 196.347 213.928 221.413 250.351 251.551L316.101 306.755V339.878V373H337.387H358.673L359.619 186.5C360.565 83.8504 359.619 0.29837 358.2 0.596771C356.308 1.19357 331.238 21.4848 302.383 46.252C197.372 135.474 183.181 146.813 177.505 143.53C174.194 142.038 134.46 108.916 89.0492 70.4224C43.6388 31.9288 4.85079 0.29837 2.48567 -3.05176e-05C0.593567 -3.05176e-05 -0.352482 83.552 0.120543 185.605ZM104.659 129.804L153.854 171.282L132.094 189.782C120.269 199.928 96.1445 219.921 78.6426 234.244L46.95 260.205L45.5309 198.138C43.6388 119.36 45.5309 81.7616 51.2072 85.3424C53.5723 86.8344 77.6966 106.827 104.659 129.804ZM315.155 214.251L313.736 258.713L262.176 215.743C213.928 175.459 210.616 172.177 216.766 166.209C220.077 162.628 243.255 142.337 268.325 120.852L313.736 82.3584L315.155 125.925C315.628 150.095 315.628 189.782 315.155 214.251Z" fill="black"/>
</svg>
