<svg width="40" height="40" viewBox="0 0 40 40" fill="none" xmlns="http://www.w3.org/2000/svg">
<path d="M3.75003 36.875C3.65065 36.8753 3.55264 36.8518 3.46414 36.8066C3.37563 36.7614 3.29918 36.6958 3.24113 36.6151C3.18308 36.5344 3.1451 36.4411 3.13034 36.3428C3.11559 36.2445 3.12448 36.1442 3.15628 36.05L5.62503 28.7875C3.68277 25.5564 2.87402 21.7696 3.32685 18.027C3.77968 14.2843 5.46822 10.7997 8.12503 8.12501C11.2793 4.98471 15.5491 3.22168 20 3.22168C24.451 3.22168 28.7207 4.98471 31.875 8.12501C34.6556 10.9455 36.3528 14.656 36.6684 18.6041C36.9839 22.5521 35.8976 26.4851 33.6004 29.7115C31.3032 32.9379 27.9421 35.2512 24.1081 36.2447C20.2741 37.2383 16.2126 36.8484 12.6375 35.1438L3.87503 36.875H3.75003ZM12.7188 33.8438C12.8166 33.8443 12.913 33.8679 13 33.9125C16.3067 35.5619 20.0918 35.9828 23.68 35.1004C27.2683 34.2179 30.4264 32.0894 32.5909 29.0945C34.7554 26.0996 35.7856 22.4332 35.4976 18.7492C35.2097 15.0653 33.6223 11.6034 31.0188 8.98126C29.5719 7.53406 27.8541 6.38607 25.9635 5.60283C24.0728 4.8196 22.0465 4.41647 20 4.41647C17.9536 4.41647 15.9272 4.8196 14.0366 5.60283C12.146 6.38607 10.4282 7.53406 8.98128 8.98126C6.49193 11.4967 4.92704 14.7805 4.54121 18.2983C4.15538 21.8162 4.97132 25.3611 6.85628 28.3563C6.90631 28.4354 6.9379 28.5249 6.94871 28.6179C6.95953 28.7109 6.9493 28.8052 6.91878 28.8938L4.69378 35.45L12.6063 33.875L12.7188 33.8438Z" fill="#CEB84C"/>
<path d="M24.4813 28.75C24.2897 28.7604 24.0978 28.7604 23.9063 28.75C20.5875 28.3875 16.4063 25.1062 15.225 23.95C14.0688 22.7937 10.7813 18.5875 10.425 15.2687C10.1375 12.6187 11.9063 10.8187 12.6813 10.1625C13.0278 9.86477 13.4749 9.71053 13.9313 9.73121L15.6188 9.78746C15.7422 9.79203 15.8615 9.83305 15.9616 9.90536C16.0617 9.97766 16.1381 10.078 16.1813 10.1937C16.5563 11.1875 17.7688 14.4937 17.7688 15.35C17.7688 16.1 17.1063 16.6812 16.5188 17.1937C16.3938 17.3 16.225 17.45 16.125 17.5562C16.7567 18.7106 17.5133 19.7921 18.3813 20.7812C19.3705 21.649 20.4519 22.4057 21.6063 23.0375C21.7125 22.9312 21.8625 22.7625 21.9688 22.6437C22.4813 22.0562 23.0625 21.3937 23.8438 21.3937C24.7 21.3937 28.0063 22.6062 29 22.9812C29.1157 23.0243 29.2161 23.1008 29.2884 23.2009C29.3607 23.301 29.4017 23.4203 29.4063 23.5437L29.4625 25.2312C29.4753 25.6864 29.322 26.1307 29.0313 26.4812C28.479 27.1625 27.7871 27.7175 27.0022 28.1089C26.2174 28.5002 25.3577 28.7188 24.4813 28.75ZM16.1125 23.05C17.1438 24.0812 21.1125 27.175 24.0438 27.4937C26.1 27.7125 27.5375 26.2937 28.0625 25.675C28.1562 25.5583 28.205 25.412 28.2 25.2625L28.1563 24.0125C26.7513 23.449 25.3055 22.9936 23.8313 22.65C23.6313 22.65 23.1375 23.2312 22.925 23.475C22.5 23.9625 22.1625 24.3437 21.675 24.3437C20.8813 24.3437 18.1125 22.2937 17.4938 21.675C16.875 21.0562 14.8438 18.2687 14.8438 17.5C14.8438 17.0312 15.225 16.6937 15.7125 16.25C15.95 16.0375 16.5188 15.55 16.5375 15.3437C16.1938 13.8695 15.7383 12.4237 15.175 11.0187L13.925 10.975C13.7755 10.9699 13.6291 11.0187 13.5125 11.1125C12.8875 11.6375 11.4688 13.075 11.6938 15.125C12.0125 18.075 15.1063 22 16.1375 23.0562L16.1125 23.05Z" fill="#CEB84C"/>
</svg>
